<?xml version="1.0" standalone="no"?>
<!DOCTYPE svg PUBLIC "-//W3C//DTD SVG 20010904//EN"
 "http://www.w3.org/TR/2001/REC-SVG-20010904/DTD/svg10.dtd">
<svg version="1.0" xmlns="http://www.w3.org/2000/svg"
 width="500.000000pt" height="500.000000pt" viewBox="0 0 500.000000 500.000000"
 preserveAspectRatio="xMidYMid meet">
<metadata>
Created by potrace 1.14, written by Peter Selinger 2001-2017
</metadata>
<g transform="translate(0.000000,500.000000) scale(0.100000,-0.100000)"
fill="#000000" stroke="none">
<path d="M1117 4222 c-10 -10 -17 -21 -17 -25 0 -9 409 -387 419 -387 4 0 16
9 26 20 19 20 18 22 -21 60 -76 75 -379 350 -385 350 -3 0 -13 -8 -22 -18z"/>
<path d="M2330 3935 l0 -285 35 0 35 0 0 285 0 285 -35 0 -35 0 0 -285z"/>
<path d="M1730 3660 c-25 -25 -25 -54 2 -151 l21 -79 37 0 c76 0 158 46 212
119 l30 41 -24 9 c-13 5 -63 25 -112 45 -102 41 -138 44 -166 16z"/>
<path d="M3027 3629 c-217 -19 -375 -105 -460 -250 -36 -60 -67 -186 -67 -268
l0 -66 -59 65 -59 65 -23 -20 c-13 -11 -26 -21 -28 -23 -3 -1 26 -35 65 -75
112 -116 115 -120 129 -194 19 -101 52 -179 86 -208 35 -29 83 -33 117 -9 19
13 26 13 38 3 12 -10 22 -5 57 30 24 22 56 64 73 91 16 27 32 49 35 47 13 -5
289 -316 289 -325 0 -6 -20 -27 -45 -48 -34 -27 -49 -34 -57 -26 -8 8 -33 -8
-94 -64 l-83 -75 -398 370 -398 370 -25 -24 -24 -25 31 -27 c18 -16 197 -181
398 -368 l365 -339 -57 -58 -56 -57 79 -77 c148 -144 305 -224 415 -211 132
16 236 108 255 226 4 25 12 41 20 41 19 0 17 31 -6 97 -11 32 -20 58 -20 60 0
1 43 22 96 47 124 59 303 165 487 288 l148 100 -179 186 c-99 103 -297 311
-441 462 -231 243 -266 276 -299 281 -72 12 -218 16 -305 8z"/>
<path d="M2162 3306 c-13 -48 -65 -102 -110 -112 -15 -3 -32 -7 -38 -9 -6 -2
-17 -24 -23 -50 -14 -56 -58 -105 -95 -105 -14 0 -26 -6 -26 -12 0 -7 -3 -24
-7 -37 -6 -23 -5 -24 35 -19 64 9 107 42 138 104 22 45 36 60 75 79 51 26 89
69 114 128 25 59 21 77 -18 77 -30 0 -34 -3 -45 -44z"/>
<path d="M4889 3083 c-29 -38 -97 -121 -152 -186 l-100 -119 25 -24 24 -25 91
108 c49 59 120 147 156 194 l67 87 -25 16 c-13 9 -26 16 -29 16 -2 0 -28 -30
-57 -67z"/>
<path d="M1058 3093 l-128 -4 0 -35 0 -36 243 7 c133 3 252 8 265 11 17 3 22
11 22 34 l0 30 -137 -2 c-76 -1 -195 -4 -265 -5z"/>
<path d="M1796 2708 c-104 -58 -332 -290 -547 -558 l-84 -105 0 175 c0 188
-12 254 -58 321 -39 57 -71 74 -142 74 -56 0 -67 -3 -94 -29 -78 -75 -122
-283 -187 -891 -9 -88 -18 -162 -20 -164 -2 -3 -46 37 -98 87 -51 51 -98 92
-103 92 -6 0 -85 -79 -177 -175 l-167 -174 14 -28 15 -28 157 158 158 159 66
-65 c105 -102 867 -827 930 -884 49 -45 54 -53 41 -66 -8 -7 -78 -68 -155
-134 -173 -149 -170 -145 -146 -168 19 -16 21 -16 53 6 52 36 358 301 358 309
0 4 -25 29 -55 55 -30 25 -55 50 -55 55 0 4 55 52 122 106 415 335 699 627
791 813 40 81 42 89 42 175 -1 142 -43 204 -145 214 -38 3 -53 10 -65 28 -15
23 -14 29 19 97 44 94 56 138 56 215 0 98 -35 142 -114 142 -39 0 -127 -25
-179 -51 -21 -11 -42 -17 -46 -14 -5 3 -3 26 5 52 36 121 -3 219 -93 229 -30
4 -51 -3 -97 -28z"/>
<path d="M3830 1830 l0 -30 165 0 165 0 0 30 0 30 -165 0 -165 0 0 -30z"/>
<path d="M3541 1601 l-25 -19 164 -263 c90 -145 178 -288 197 -317 l33 -52 30
15 29 15 -57 93 c-31 51 -120 195 -197 319 -77 125 -142 228 -145 228 -3 0
-16 -9 -29 -19z"/>
<path d="M2950 1240 l0 -300 35 0 35 0 0 300 0 300 -35 0 -35 0 0 -300z"/>
</g>
</svg>
